Filename:
Alpha and Omega R5 READNFO XViD - IMAGiNE
 
http://www.imdb.com/title/tt1213012/

DETAILS:

General
Complete name                    : Alpha and Omega R5 READNFO XViD - IMAGiNE
Format                           : AVI
Format/Info                      : Audio Video Interleave
File size                        : 1.32 GiB
Duration                         : 1h 26mn
Overall bit rate                 : 2 185 Kbps
Writing library                  : VirtualDub build 30091/release

Video
Format                           : MPEG-4 Visual
Format profile                   : Streaming Video@L1
Format settings, BVOP            : Yes
Format settings, QPel            : No
Format settings, GMC             : No warppoints
Format settings, Matrix          : Default
Muxing mode                      : Packed bitstream
Codec ID                         : XVID
Codec ID/Hint                    : XviD
Duration                         : 1h 26mn
Bit rate                         : 2 047 Kbps
Width                            : 720 pixels
Height                           : 304 pixels
Display aspect ratio             : 2.35
Frame rate                       : 25.000 fps
Resolution                       : 24 bits
Colorimetry                      : 4:2:0
Scan type                        : Progressive
Bits/(Pixel*Frame)               : 0.374
Stream size                      : 1.24 GiB (94%)
Writing library                  : XviD 50

Audio
Format                           : MPEG Audio
Format version                   : Version 1
Format profile                   : Layer 3
Codec ID                         : 55
Codec ID/Hint                    : MP3
Duration                         : 1h 26mn
Bit rate mode                    : Constant
Bit rate                         : 128 Kbps
Channel(s)                       : 2 channels
Sampling rate                    : 44.1 KHz
Resolution                       : 16 bits
Stream size                      : 79.1 MiB (6%)
Alignment                        : Split accross interleaves
Interleave, duration             : 40 ms (1.00 video frame)
Interleave, preload duration     : 500 ms

NOTES:

IMAGiNE bringing you another release..........Alpha & Omega

The audio....took the cam audio from our cam release and synced it to the R5 encode... for the

ending i stripped the russian audio for that so the audio would be complete.There are two small

spots in the middle of the movie that have spanish audio as there is no other english audio out for

it...
For the video we wrote a script to lower the chroma,increased the sharpness,make it brighter and

also a rgbeq filter to
correct the colours.

enjoy.